ffmpeg started on 2025-09-30 at 19:54:44
Report written to "D:\Convert\FFMetrics\reports\ssim_report-6.txt"
Log level: 32
Command line:
ffmpeg -hide_banner -nostdin -i "F:\\\xc0\xed\xe8\xec\xe5\\\xce\xed\xe3\xee\xe8\xed\xe3\xe8\\!_37_\xc7\xe8\xec\xe0_2025\\JamClub\\\xc4\xee\xea\xf2\xee\xf0 \xd1\xf2\xee\xf3\xed\\\xd2\xc2-4\\JamClub_Dr_Stone_Science_Future_01_1080p_HEVC.mkv" -i "F:\\\xc0\xed\xe8\xec\xe5\\\xce\xed\xe3\xee\xe8\xed\xe3\xe8\\!_37_\xc7\xe8\xec\xe0_2025\\JamClub\\\xc4\xee\xea\xf2\xee\xf0 \xd1\xf2\xee\xf3\xed\\\xd2\xc2-4\\JamClub_Dr_Stone_Science_Future_01_1080p.mp4" -lavfi "[0:v]settb=AVTB,setpts=PTS-STARTPTS,format=pix_fmts=yuv420p10le,fps=24000/1001,scale=1920:1080:flags=bicubic:out_range=limited:out_chroma_loc=left,colorspace=format=yuv420p10:range=tv:primaries=bt709:trc=bt709:space=bt709:fast=0[main];[1:v]settb=AVTB,setpts=PTS-STARTPTS,format=pix_fmts=yuv420p,fps=24000/1001,scale=1920:1080:flags=bicubic:out_range=limited:out_chroma_loc=left,colorspace=format=yuv420p:irange=tv:iprimaries=bt709:itrc=bt709:ispace=bt709:range=tv:primaries=bt709:trc=bt709:space=bt709:fast=0[ref];[main][ref]ssim=eof_action=endall:stats_file='D\\:/Convert/FFMetrics/logs/ssim_logfile-6.txt'" -f null -
Input #0, matroska,webm, from 'F:\Аниме\Онгоинги\!_37_Зима_2025\JamClub\Доктор Стоун\ТВ-4\JamClub_Dr_Stone_Science_Future_01_1080p_HEVC.mkv':
  Metadata:
    COMPATIBLE_BRANDS: mp42mp41
    MAJOR_BRAND     : mp42
    MINOR_VERSION   : 0
    ENCODER         : Lavf61.7.100
  Duration: 00:24:22.17, start: -0.021000, bitrate: 1709 kb/s
  Stream #0:0(eng): Video: hevc (Main 10), yuv420p10le(tv, bt709, progressive), 1920x1080 [SAR 1:1 DAR 16:9], 23.98 fps, 23.98 tbr, 1k tbn (default)
      Metadata:
        HANDLER_NAME    : Mainconcept Video Media Handler
        VENDOR_ID       : [0][0][0][0]
        ENCODER         : Lavc61.19.100 libx265
        BPS             : 1510229
        DURATION        : 00:24:22.127708333
        NUMBER_OF_FRAMES: 35056
        NUMBER_OF_BYTES : 276018375
        _STATISTICS_WRITING_APP: mkvpropedit v94.0 ('Initiate') 64-bit
        _STATISTICS_WRITING_DATE_UTC: 2025-09-30 15:45:57
        _STATISTICS_TAGS: BPS DURATION NUMBER_OF_FRAMES NUMBER_OF_BYTES
  Stream #0:1(eng): Audio: aac (LC), 48000 Hz, stereo, fltp (default)
      Metadata:
        HANDLER_NAME    : #Mainconcept MP4 Sound Media Handler
        VENDOR_ID       : [0][0][0][0]
        ENCODER         : Lavc61.19.100 aac
        BPS             : 194942
        DURATION        : 00:24:22.144000000
        NUMBER_OF_FRAMES: 68539
        NUMBER_OF_BYTES : 35629215
        _STATISTICS_WRITING_APP: mkvpropedit v94.0 ('Initiate') 64-bit
        _STATISTICS_WRITING_DATE_UTC: 2025-09-30 15:45:57
        _STATISTICS_TAGS: BPS DURATION NUMBER_OF_FRAMES NUMBER_OF_BYTES
Input #1, mov,mp4,m4a,3gp,3g2,mj2, from 'F:\Аниме\Онгоинги\!_37_Зима_2025\JamClub\Доктор Стоун\ТВ-4\JamClub_Dr_Stone_Science_Future_01_1080p.mp4':
  Metadata:
    major_brand     : mp42
    minor_version   : 0
    compatible_brands: mp42mp41
    creation_time   : 2025-02-16T13:32:08.000000Z
  Duration: 00:24:22.13, start: 0.000000, bitrate: 5102 kb/s
  Stream #1:0[0x1](eng): Video: h264 (Main) (avc1 / 0x31637661), yuv420p(progressive), 1920x1080 [SAR 1:1 DAR 16:9], 4782 kb/s, 23.98 fps, 23.98 tbr, 24k tbn (default)
      Metadata:
        creation_time   : 2025-02-16T13:32:08.000000Z
        handler_name    : Mainconcept Video Media Handler
        vendor_id       : [0][0][0][0]
        encoder         : AVC Coding
  Stream #1:1[0x2](eng): Audio: aac (LC) (mp4a / 0x6134706D), 48000 Hz, stereo, fltp, 317 kb/s (default)
      Metadata:
        creation_time   : 2025-02-16T13:32:08.000000Z
        handler_name    : #Mainconcept MP4 Sound Media Handler
        vendor_id       : [0][0][0][0]
Stream mapping:
  Stream #0:0 (hevc) -> settb:default
  Stream #1:0 (h264) -> settb:default
  ssim:default -> Stream #0:0 (wrapped_avframe)
  Stream #0:1 -> #0:1 (aac (native) -> pcm_s16le (native))
Output #0, null, to 'pipe:':
  Metadata:
    COMPATIBLE_BRANDS: mp42mp41
    MAJOR_BRAND     : mp42
    MINOR_VERSION   : 0
    encoder         : Lavf61.7.100
  Stream #0:0: Video: wrapped_avframe, yuv420p10le(tv, bt709, progressive), 1920x1080 [SAR 1:1 DAR 16:9], q=2-31, 200 kb/s, 23.98 fps, 23.98 tbn
      Metadata:
        encoder         : Lavc61.19.100 wrapped_avframe
  Stream #0:1(eng): Audio: pcm_s16le, 48000 Hz, stereo, s16, 1536 kb/s (default)
      Metadata:
        HANDLER_NAME    : #Mainconcept MP4 Sound Media Handler
        VENDOR_ID       : [0][0][0][0]
        _STATISTICS_TAGS: BPS DURATION NUMBER_OF_FRAMES NUMBER_OF_BYTES
        BPS             : 194942
        DURATION        : 00:24:22.144000000
        NUMBER_OF_FRAMES: 68539
        NUMBER_OF_BYTES : 35629215
        _STATISTICS_WRITING_APP: mkvpropedit v94.0 ('Initiate') 64-bit
        _STATISTICS_WRITING_DATE_UTC: 2025-09-30 15:45:57
        encoder         : Lavc61.19.100 pcm_s16le
frame=  107 fps=0.0 q=-0.0 size=N/A time=00:00:04.46 bitrate=N/A speed=8.64x    frame=  247 fps=240 q=-0.0 size=N/A time=00:00:10.30 bitrate=N/A speed=  10x    frame=  417 fps=271 q=-0.0 size=N/A time=00:00:17.39 bitrate=N/A speed=11.3x    frame=  597 fps=291 q=-0.0 size=N/A time=00:00:24.89 bitrate=N/A speed=12.1x    frame=  774 fps=300 q=-0.0 size=N/A time=00:00:32.28 bitrate=N/A speed=12.5x    frame=  944 fps=306 q=-0.0 size=N/A time=00:00:39.37 bitrate=N/A speed=12.8x    frame= 1103 fps=306 q=-0.0 size=N/A time=00:00:46.00 bitrate=N/A speed=12.8x    frame= 1296 fps=314 q=-0.0 size=N/A time=00:00:54.05 bitrate=N/A speed=13.1x    frame= 1490 fps=321 q=-0.0 size=N/A time=00:01:02.14 bitrate=N/A speed=13.4x    frame= 1672 fps=325 q=-0.0 size=N/A time=00:01:09.73 bitrate=N/A speed=13.5x    frame= 1841 fps=325 q=-0.0 size=N/A time=00:01:16.78 bitrate=N/A speed=13.6x    frame= 2034 fps=329 q=-0.0 size=N/A time=00:01:24.83 bitrate=N/A speed=13.7x    frame= 2243 fps=335 q=-0.0 size=N/A time=00:01:33.55 bitrate=N/A speed=  14x    frame= 2438 fps=338 q=-0.0 size=N/A time=00:01:41.68 bitrate=N/A speed=14.1x    frame= 2623 fps=339 q=-0.0 size=N/A time=00:01:49.40 bitrate=N/A speed=14.2x    frame= 2817 fps=342 q=-0.0 size=N/A time=00:01:57.49 bitrate=N/A speed=14.3x    frame= 3017 fps=344 q=-0.0 size=N/A time=00:02:05.83 bitrate=N/A speed=14.4x    frame= 3202 fps=345 q=-0.0 size=N/A time=00:02:13.55 bitrate=N/A speed=14.4x    frame= 3394 fps=347 q=-0.0 size=N/A time=00:02:21.55 bitrate=N/A speed=14.5x    frame= 3587 fps=348 q=-0.0 size=N/A time=00:02:29.60 bitrate=N/A speed=14.5x    frame= 3782 fps=350 q=-0.0 size=N/A time=00:02:37.74 bitrate=N/A speed=14.6x    frame= 3984 fps=351 q=-0.0 size=N/A time=00:02:46.16 bitrate=N/A speed=14.7x    frame= 4181 fps=353 q=-0.0 size=N/A time=00:02:54.38 bitrate=N/A speed=14.7x    frame= 4362 fps=353 q=-0.0 size=N/A time=00:03:01.93 bitrate=N/A speed=14.7x    frame= 4551 fps=353 q=-0.0 size=N/A time=00:03:09.81 bitrate=N/A speed=14.7x    frame= 4753 fps=355 q=-0.0 size=N/A time=00:03:18.23 bitrate=N/A speed=14.8x    frame= 4940 fps=355 q=-0.0 size=N/A time=00:03:26.03 bitrate=N/A speed=14.8x    frame= 5137 fps=356 q=-0.0 size=N/A time=00:03:34.25 bitrate=N/A speed=14.9x    frame= 5320 fps=356 q=-0.0 size=N/A time=00:03:41.88 bitrate=N/A speed=14.9x    frame= 5509 fps=356 q=-0.0 size=N/A time=00:03:49.77 bitrate=N/A speed=14.9x    frame= 5686 fps=356 q=-0.0 size=N/A time=00:03:57.15 bitrate=N/A speed=14.8x    frame= 5827 fps=353 q=-0.0 size=N/A time=00:04:03.03 bitrate=N/A speed=14.7x    frame= 5966 fps=351 q=-0.0 size=N/A time=00:04:08.83 bitrate=N/A speed=14.6x    frame= 6111 fps=349 q=-0.0 size=N/A time=00:04:14.87 bitrate=N/A speed=14.5x    frame= 6249 fps=346 q=-0.0 size=N/A time=00:04:20.63 bitrate=N/A speed=14.4x    frame= 6395 fps=345 q=-0.0 size=N/A time=00:04:26.72 bitrate=N/A speed=14.4x    frame= 6569 fps=345 q=-0.0 size=N/A time=00:04:33.98 bitrate=N/A speed=14.4x    frame= 6702 fps=342 q=-0.0 size=N/A time=00:04:39.52 bitrate=N/A speed=14.3x    frame= 6826 fps=340 q=-0.0 size=N/A time=00:04:44.70 bitrate=N/A speed=14.2x    frame= 6962 fps=338 q=-0.0 size=N/A time=00:04:50.37 bitrate=N/A speed=14.1x    frame= 7098 fps=336 q=-0.0 size=N/A time=00:04:56.04 bitrate=N/A speed=  14x    frame= 7230 fps=334 q=-0.0 size=N/A time=00:05:01.55 bitrate=N/A speed=13.9x    frame= 7403 fps=334 q=-0.0 size=N/A time=00:05:08.76 bitrate=N/A speed=13.9x    frame= 7565 fps=334 q=-0.0 size=N/A time=00:05:15.52 bitrate=N/A speed=13.9x    frame= 7722 fps=333 q=-0.0 size=N/A time=00:05:22.07 bitrate=N/A speed=13.9x    frame= 7907 fps=333 q=-0.0 size=N/A time=00:05:29.78 bitrate=N/A speed=13.9x    frame= 8062 fps=333 q=-0.0 size=N/A time=00:05:36.25 bitrate=N/A speed=13.9x    frame= 8252 fps=334 q=-0.0 size=N/A time=00:05:44.17 bitrate=N/A speed=13.9x    frame= 8425 fps=334 q=-0.0 size=N/A time=00:05:51.39 bitrate=N/A speed=13.9x    frame= 8615 fps=334 q=-0.0 size=N/A time=00:05:59.31 bitrate=N/A speed=13.9x    frame= 8808 fps=335 q=-0.0 size=N/A time=00:06:07.36 bitrate=N/A speed=  14x    frame= 8998 fps=336 q=-0.0 size=N/A time=00:06:15.29 bitrate=N/A speed=  14x    frame= 9187 fps=336 q=-0.0 size=N/A time=00:06:23.17 bitrate=N/A speed=  14x    frame= 9383 fps=337 q=-0.0 size=N/A time=00:06:31.34 bitrate=N/A speed=14.1x    frame= 9568 fps=337 q=-0.0 size=N/A time=00:06:39.06 bitrate=N/A speed=14.1x    frame= 9741 fps=337 q=-0.0 size=N/A time=00:06:46.28 bitrate=N/A speed=14.1x    frame= 9938 fps=338 q=-0.0 size=N/A time=00:06:54.49 bitrate=N/A speed=14.1x    frame=10122 fps=339 q=-0.0 size=N/A time=00:07:02.17 bitrate=N/A speed=14.1x    frame=10313 fps=339 q=-0.0 size=N/A time=00:07:10.13 bitrate=N/A speed=14.1x    frame=10502 fps=340 q=-0.0 size=N/A time=00:07:18.02 bitrate=N/A speed=14.2x    frame=10701 fps=340 q=-0.0 size=N/A time=00:07:26.32 bitrate=N/A speed=14.2x    frame=10877 fps=340 q=-0.0 size=N/A time=00:07:33.66 bitrate=N/A speed=14.2x    frame=11074 fps=341 q=-0.0 size=N/A time=00:07:41.87 bitrate=N/A speed=14.2x    frame=11253 fps=341 q=-0.0 size=N/A time=00:07:49.34 bitrate=N/A speed=14.2x    frame=11432 fps=341 q=-0.0 size=N/A time=00:07:56.80 bitrate=N/A speed=14.2x    frame=11626 fps=342 q=-0.0 size=N/A time=00:08:04.90 bitrate=N/A speed=14.2x    frame=11814 fps=342 q=-0.0 size=N/A time=00:08:12.74 bitrate=N/A speed=14.3x    frame=11997 fps=342 q=-0.0 size=N/A time=00:08:20.37 bitrate=N/A speed=14.3x    frame=12170 fps=342 q=-0.0 size=N/A time=00:08:27.59 bitrate=N/A speed=14.3x    frame=12350 fps=342 q=-0.0 size=N/A time=00:08:35.09 bitrate=N/A speed=14.3x    frame=12527 fps=342 q=-0.0 size=N/A time=00:08:42.48 bitrate=N/A speed=14.3x    frame=12692 fps=342 q=-0.0 size=N/A time=00:08:49.36 bitrate=N/A speed=14.3x    frame=12882 fps=342 q=-0.0 size=N/A time=00:08:57.28 bitrate=N/A speed=14.3x    frame=13068 fps=343 q=-0.0 size=N/A time=00:09:05.04 bitrate=N/A speed=14.3x    frame=13244 fps=343 q=-0.0 size=N/A time=00:09:12.38 bitrate=N/A speed=14.3x    frame=13426 fps=343 q=-0.0 size=N/A time=00:09:19.97 bitrate=N/A speed=14.3x    frame=13630 fps=343 q=-0.0 size=N/A time=00:09:28.48 bitrate=N/A speed=14.3x    frame=13825 fps=344 q=-0.0 size=N/A time=00:09:36.61 bitrate=N/A speed=14.3x    frame=14019 fps=344 q=-0.0 size=N/A time=00:09:44.70 bitrate=N/A speed=14.4x    frame=14212 fps=345 q=-0.0 size=N/A time=00:09:52.75 bitrate=N/A speed=14.4x    frame=14402 fps=345 q=-0.0 size=N/A time=00:10:00.68 bitrate=N/A speed=14.4x    frame=14596 fps=345 q=-0.0 size=N/A time=00:10:08.77 bitrate=N/A speed=14.4x    frame=14772 fps=345 q=-0.0 size=N/A time=00:10:16.11 bitrate=N/A speed=14.4x    frame=14953 fps=345 q=-0.0 size=N/A time=00:10:23.66 bitrate=N/A speed=14.4x    frame=15144 fps=346 q=-0.0 size=N/A time=00:10:31.63 bitrate=N/A speed=14.4x    frame=15336 fps=346 q=-0.0 size=N/A time=00:10:39.63 bitrate=N/A speed=14.4x    frame=15533 fps=346 q=-0.0 size=N/A time=00:10:47.85 bitrate=N/A speed=14.4x    frame=15733 fps=347 q=-0.0 size=N/A time=00:10:56.19 bitrate=N/A speed=14.5x    frame=15904 fps=347 q=-0.0 size=N/A time=00:11:03.32 bitrate=N/A speed=14.5x    frame=16099 fps=347 q=-0.0 size=N/A time=00:11:11.46 bitrate=N/A speed=14.5x    frame=16282 fps=347 q=-0.0 size=N/A time=00:11:19.09 bitrate=N/A speed=14.5x    frame=16474 fps=347 q=-0.0 size=N/A time=00:11:27.10 bitrate=N/A speed=14.5x    frame=16655 fps=347 q=-0.0 size=N/A time=00:11:34.65 bitrate=N/A speed=14.5x    frame=16829 fps=347 q=-0.0 size=N/A time=00:11:41.90 bitrate=N/A speed=14.5x    frame=17020 fps=348 q=-0.0 size=N/A time=00:11:49.87 bitrate=N/A speed=14.5x    frame=17208 fps=348 q=-0.0 size=N/A time=00:11:57.71 bitrate=N/A speed=14.5x    frame=17395 fps=348 q=-0.0 size=N/A time=00:12:05.51 bitrate=N/A speed=14.5x    frame=17596 fps=348 q=-0.0 size=N/A time=00:12:13.89 bitrate=N/A speed=14.5x    frame=17790 fps=349 q=-0.0 size=N/A time=00:12:21.99 bitrate=N/A speed=14.5x    frame=17993 fps=349 q=-0.0 size=N/A time=00:12:30.45 bitrate=N/A speed=14.6x    frame=18183 fps=349 q=-0.0 size=N/A time=00:12:38.38 bitrate=N/A speed=14.6x    frame=18360 fps=349 q=-0.0 size=N/A time=00:12:45.76 bitrate=N/A speed=14.6x    frame=18549 fps=349 q=-0.0 size=N/A time=00:12:53.64 bitrate=N/A speed=14.6x    frame=18750 fps=350 q=-0.0 size=N/A time=00:13:02.03 bitrate=N/A speed=14.6x    frame=18945 fps=350 q=-0.0 size=N/A time=00:13:10.16 bitrate=N/A speed=14.6x    frame=19128 fps=350 q=-0.0 size=N/A time=00:13:17.79 bitrate=N/A speed=14.6x    frame=19314 fps=350 q=-0.0 size=N/A time=00:13:25.55 bitrate=N/A speed=14.6x    frame=19493 fps=350 q=-0.0 size=N/A time=00:13:33.02 bitrate=N/A speed=14.6x    frame=19686 fps=350 q=-0.0 size=N/A time=00:13:41.07 bitrate=N/A speed=14.6x    frame=19867 fps=350 q=-0.0 size=N/A time=00:13:48.61 bitrate=N/A speed=14.6x    frame=20059 fps=350 q=-0.0 size=N/A time=00:13:56.62 bitrate=N/A speed=14.6x    frame=20214 fps=350 q=-0.0 size=N/A time=00:14:03.09 bitrate=N/A speed=14.6x    frame=20401 fps=350 q=-0.0 size=N/A time=00:14:10.89 bitrate=N/A speed=14.6x    frame=20602 fps=350 q=-0.0 size=N/A time=00:14:19.27 bitrate=N/A speed=14.6x    frame=20794 fps=351 q=-0.0 size=N/A time=00:14:27.28 bitrate=N/A speed=14.6x    frame=20986 fps=351 q=-0.0 size=N/A time=00:14:35.29 bitrate=N/A speed=14.6x    frame=21157 fps=351 q=-0.0 size=N/A time=00:14:42.42 bitrate=N/A speed=14.6x    frame=21344 fps=351 q=-0.0 size=N/A time=00:14:50.22 bitrate=N/A speed=14.6x    frame=21542 fps=351 q=-0.0 size=N/A time=00:14:58.48 bitrate=N/A speed=14.6x    frame=21734 fps=351 q=-0.0 size=N/A time=00:15:06.48 bitrate=N/A speed=14.7x    frame=21916 fps=351 q=-0.0 size=N/A time=00:15:14.07 bitrate=N/A speed=14.7x    frame=22102 fps=351 q=-0.0 size=N/A time=00:15:21.83 bitrate=N/A speed=14.7x    frame=22285 fps=351 q=-0.0 size=N/A time=00:15:29.47 bitrate=N/A speed=14.7x    frame=22461 fps=351 q=-0.0 size=N/A time=00:15:36.81 bitrate=N/A speed=14.7x    frame=22653 fps=351 q=-0.0 size=N/A time=00:15:44.81 bitrate=N/A speed=14.7x    frame=22840 fps=352 q=-0.0 size=N/A time=00:15:52.61 bitrate=N/A speed=14.7x    frame=23023 fps=352 q=-0.0 size=N/A time=00:16:00.25 bitrate=N/A speed=14.7x    frame=23211 fps=352 q=-0.0 size=N/A time=00:16:08.09 bitrate=N/A speed=14.7x    frame=23409 fps=352 q=-0.0 size=N/A time=00:16:16.35 bitrate=N/A speed=14.7x    frame=23598 fps=352 q=-0.0 size=N/A time=00:16:24.23 bitrate=N/A speed=14.7x    frame=23784 fps=352 q=-0.0 size=N/A time=00:16:31.99 bitrate=N/A speed=14.7x    frame=23950 fps=352 q=-0.0 size=N/A time=00:16:38.91 bitrate=N/A speed=14.7x    frame=24120 fps=352 q=-0.0 size=N/A time=00:16:46.00 bitrate=N/A speed=14.7x    frame=24288 fps=352 q=-0.0 size=N/A time=00:16:53.01 bitrate=N/A speed=14.7x    frame=24485 fps=352 q=-0.0 size=N/A time=00:17:01.22 bitrate=N/A speed=14.7x    frame=24670 fps=352 q=-0.0 size=N/A time=00:17:08.94 bitrate=N/A speed=14.7x    frame=24853 fps=352 q=-0.0 size=N/A time=00:17:16.57 bitrate=N/A speed=14.7x    frame=25052 fps=352 q=-0.0 size=N/A time=00:17:24.87 bitrate=N/A speed=14.7x    frame=25248 fps=352 q=-0.0 size=N/A time=00:17:33.05 bitrate=N/A speed=14.7x    frame=25432 fps=352 q=-0.0 size=N/A time=00:17:40.72 bitrate=N/A speed=14.7x    frame=25617 fps=352 q=-0.0 size=N/A time=00:17:48.44 bitrate=N/A speed=14.7x    frame=25787 fps=352 q=-0.0 size=N/A time=00:17:55.53 bitrate=N/A speed=14.7x    frame=25962 fps=352 q=-0.0 size=N/A time=00:18:02.83 bitrate=N/A speed=14.7x    frame=26148 fps=352 q=-0.0 size=N/A time=00:18:10.58 bitrate=N/A speed=14.7x    frame=26349 fps=352 q=-0.0 size=N/A time=00:18:18.97 bitrate=N/A speed=14.7x    frame=26540 fps=352 q=-0.0 size=N/A time=00:18:26.93 bitrate=N/A speed=14.7x    frame=26725 fps=353 q=-0.0 size=N/A time=00:18:34.65 bitrate=N/A speed=14.7x    frame=26908 fps=353 q=-0.0 size=N/A time=00:18:42.28 bitrate=N/A speed=14.7x    frame=27109 fps=353 q=-0.0 size=N/A time=00:18:50.67 bitrate=N/A speed=14.7x    frame=27279 fps=353 q=-0.0 size=N/A time=00:18:57.76 bitrate=N/A speed=14.7x    frame=27443 fps=352 q=-0.0 size=N/A time=00:19:04.60 bitrate=N/A speed=14.7x    frame=27601 fps=352 q=-0.0 size=N/A time=00:19:11.19 bitrate=N/A speed=14.7x    frame=27769 fps=352 q=-0.0 size=N/A time=00:19:18.19 bitrate=N/A speed=14.7x    frame=27931 fps=352 q=-0.0 size=N/A time=00:19:24.95 bitrate=N/A speed=14.7x    frame=28122 fps=352 q=-0.0 size=N/A time=00:19:32.92 bitrate=N/A speed=14.7x    frame=28297 fps=352 q=-0.0 size=N/A time=00:19:40.22 bitrate=N/A speed=14.7x    frame=28457 fps=351 q=-0.0 size=N/A time=00:19:46.89 bitrate=N/A speed=14.7x    frame=28630 fps=351 q=-0.0 size=N/A time=00:19:54.10 bitrate=N/A speed=14.7x    frame=28821 fps=352 q=-0.0 size=N/A time=00:20:02.07 bitrate=N/A speed=14.7x    frame=29010 fps=352 q=-0.0 size=N/A time=00:20:09.95 bitrate=N/A speed=14.7x    frame=29208 fps=352 q=-0.0 size=N/A time=00:20:18.21 bitrate=N/A speed=14.7x    frame=29376 fps=352 q=-0.0 size=N/A time=00:20:25.22 bitrate=N/A speed=14.7x    frame=29566 fps=352 q=-0.0 size=N/A time=00:20:33.14 bitrate=N/A speed=14.7x    frame=29743 fps=352 q=-0.0 size=N/A time=00:20:40.53 bitrate=N/A speed=14.7x    frame=29926 fps=352 q=-0.0 size=N/A time=00:20:48.16 bitrate=N/A speed=14.7x    frame=30108 fps=352 q=-0.0 size=N/A time=00:20:55.75 bitrate=N/A speed=14.7x    frame=30289 fps=352 q=-0.0 size=N/A time=00:21:03.30 bitrate=N/A speed=14.7x    frame=30453 fps=352 q=-0.0 size=N/A time=00:21:10.14 bitrate=N/A speed=14.7x    frame=30635 fps=351 q=-0.0 size=N/A time=00:21:17.73 bitrate=N/A speed=14.7x    frame=30824 fps=352 q=-0.0 size=N/A time=00:21:25.61 bitrate=N/A speed=14.7x    frame=31014 fps=352 q=-0.0 size=N/A time=00:21:33.54 bitrate=N/A speed=14.7x    frame=31198 fps=352 q=-0.0 size=N/A time=00:21:41.21 bitrate=N/A speed=14.7x    frame=31386 fps=352 q=-0.0 size=N/A time=00:21:49.05 bitrate=N/A speed=14.7x    frame=31572 fps=352 q=-0.0 size=N/A time=00:21:56.81 bitrate=N/A speed=14.7x    frame=31758 fps=352 q=-0.0 size=N/A time=00:22:04.57 bitrate=N/A speed=14.7x    frame=31956 fps=352 q=-0.0 size=N/A time=00:22:12.83 bitrate=N/A speed=14.7x    frame=32151 fps=352 q=-0.0 size=N/A time=00:22:20.96 bitrate=N/A speed=14.7x    frame=32339 fps=352 q=-0.0 size=N/A time=00:22:28.80 bitrate=N/A speed=14.7x    frame=32517 fps=352 q=-0.0 size=N/A time=00:22:36.22 bitrate=N/A speed=14.7x    frame=32715 fps=352 q=-0.0 size=N/A time=00:22:44.48 bitrate=N/A speed=14.7x    frame=32906 fps=353 q=-0.0 size=N/A time=00:22:52.45 bitrate=N/A speed=14.7x    frame=33095 fps=353 q=-0.0 size=N/A time=00:23:00.33 bitrate=N/A speed=14.7x    frame=33283 fps=353 q=-0.0 size=N/A time=00:23:08.17 bitrate=N/A speed=14.7x    frame=33466 fps=353 q=-0.0 size=N/A time=00:23:15.81 bitrate=N/A speed=14.7x    frame=33646 fps=353 q=-0.0 size=N/A time=00:23:23.31 bitrate=N/A speed=14.7x    frame=33829 fps=353 q=-0.0 size=N/A time=00:23:30.95 bitrate=N/A speed=14.7x    frame=34015 fps=353 q=-0.0 size=N/A time=00:23:38.70 bitrate=N/A speed=14.7x    frame=34199 fps=353 q=-0.0 size=N/A time=00:23:46.38 bitrate=N/A speed=14.7x    frame=34382 fps=353 q=-0.0 size=N/A time=00:23:54.01 bitrate=N/A speed=14.7x    frame=34522 fps=352 q=-0.0 size=N/A time=00:23:59.85 bitrate=N/A speed=14.7x    frame=34688 fps=352 q=-0.0 size=N/A time=00:24:06.77 bitrate=N/A speed=14.7x    frame=34875 fps=352 q=-0.0 size=N/A time=00:24:14.57 bitrate=N/A speed=14.7x    [Parsed_ssim_12 @ 0000021680d72400] SSIM Y:0.994772 (22.816849) U:0.994045 (22.251092) V:0.994155 (22.331918) All:0.994548 (22.634514)
[out#0/null @ 00000216ea244900] video:15063KiB audio:274156KiB subtitle:0KiB other streams:0KiB global headers:0KiB muxing overhead: unknown
frame=35056 fps=352 q=-0.0 Lsize=N/A time=00:24:22.12 bitrate=N/A speed=14.7x    
